<svg width="16" height="16" viewBox="0 0 16 16" fill="none" xmlns="http://www.w3.org/2000/svg">
<g clip-path="url(#clip0_4532_17136)">
<path fill-rule="evenodd" clip-rule="evenodd" d="M8.00001 1.83594C6.36451 1.83594 4.79599 2.48564 3.63952 3.64211C2.48304 4.79859 1.83334 6.3671 1.83334 8.0026C1.83334 9.63811 2.48304 11.2066 3.63952 12.3631C4.79599 13.5196 6.36451 14.1693 8.00001 14.1693C9.63551 14.1693 11.204 13.5196 12.3605 12.3631C13.517 11.2066 14.1667 9.63811 14.1667 8.0026C14.1667 6.3671 13.517 4.79859 12.3605 3.64211C11.204 2.48564 9.63551 1.83594 8.00001 1.83594ZM0.833344 8.0026C0.833344 4.0446 4.04201 0.835938 8.00001 0.835938C11.958 0.835938 15.1667 4.0446 15.1667 8.0026C15.1667 11.9606 11.958 15.1693 8.00001 15.1693C4.04201 15.1693 0.833344 11.9606 0.833344 8.0026Z" fill="#0E0D13"/>
<path d="M6.73335 10.8095C6.73335 11.1968 6.95801 11.6155 7.64135 11.6155C8.02868 11.6155 8.47801 11.4521 8.96735 10.7381L9.43335 10.0628C9.46344 10.0172 9.475 9.96178 9.46565 9.90792C9.45631 9.85406 9.42677 9.80579 9.38305 9.77297C9.33934 9.74014 9.28475 9.72523 9.23042 9.73127C9.17609 9.73731 9.12611 9.76385 9.09068 9.80548L8.31401 10.7555C8.29594 10.7776 8.2709 10.7929 8.243 10.7989C8.2151 10.8049 8.18599 10.8012 8.16043 10.7885C8.13487 10.7758 8.11438 10.7548 8.10232 10.7289C8.09025 10.7031 8.08732 10.6739 8.09401 10.6461L9.05268 6.65815C9.06557 6.60437 9.06489 6.54823 9.05068 6.49479C9.03648 6.44135 9.0092 6.39228 8.9713 6.352C8.93341 6.31173 8.88609 6.28151 8.83361 6.26408C8.78113 6.24665 8.72514 6.24255 8.67068 6.25215L6.77868 6.58548C6.7336 6.59346 6.69187 6.61454 6.65867 6.64607C6.62548 6.6776 6.6023 6.7182 6.59201 6.76281L6.54135 6.97948C6.53563 7.00391 6.53549 7.02932 6.54097 7.05381C6.54644 7.0783 6.55737 7.10124 6.57294 7.12092C6.58852 7.14059 6.60833 7.1565 6.63091 7.16745C6.65349 7.1784 6.67825 7.1841 6.70335 7.18415H7.53935L6.82535 10.2588C6.78468 10.4015 6.73335 10.6461 6.73335 10.8095ZM8.60135 5.66281C8.13201 5.66281 7.86668 5.37748 7.86668 5.04081C7.86668 4.96948 7.87668 4.87748 7.89735 4.79548C7.99935 4.38748 8.34601 4.13281 8.79468 4.13281C9.26401 4.13281 9.52935 4.41815 9.52935 4.75481C9.52935 4.82615 9.51935 4.91815 9.49868 4.99948C9.39668 5.40748 9.06001 5.66281 8.60135 5.66281Z" fill="#0E0D13"/>
</g>
<defs>
<clipPath id="clip0_4532_17136">
<rect width="16" height="16" fill="white"/>
</clipPath>
</defs>
</svg>
